# xmcd
#
# Track frame offsets: 
#        150
#        10933
#        22119
#        33295
#        43691
#        54704
#        64420
#        78700
#        91349
#        101944
#        111431
#        122968
#
# Disc length: 1776 seconds
#
# Revision: 0
# Processed by: cddbd v1.5.2PL0 Copyright (c) Steve Scherf et al.
# Submitted via: ExactAudioCopy v0.99pb4
#
DISCID=ac06ee0c
DTITLE=Patsy Cline - Patsy Cline Legends in Music cd 2 of 2
DYEAR=1900
DGENRE=Country
TTITLE0=I Cried All  The Way To The Altar
TTITLE1=I Go To the Church On Sunday )als known  as Dear GOD´'
TTITLE2=Just Out Of Reach
TTITLE3=Lovesick Blues
TTITLE4=Don´t Ever Leave Me
TTITLE5=I´m Blue Again
TTITLE6=Then You´ll Know
TTITLE7=Just A Closer Walk With Thee
TTITLE8=I Don´t Wana
TTITLE9=I´m Movimg Along
TTITLE10=Let The Teardrops Fall
TTITLE11=He Will Do For You What He Has Done For Me
EXTD=
EXTT0=
EXTT1=
EXTT2=
EXTT3=
EXTT4=
EXTT5=
EXTT6=
EXTT7=
EXTT8=
EXTT9=
EXTT10=
EXTT11=
PLAYORDER=
